<?xml version="1.0" encoding="UTF-8" ?>
<!DOCTYPE svg PUBLIC "-//W3C//DTD SVG 1.1//EN" "http://www.w3.org/Graphics/SVG/1.1/DTD/svg11.dtd">
<svg width="800pt" height="124pt" viewBox="0 0 800 124" version="1.1" xmlns="http://www.w3.org/2000/svg">
<path fill="#ffffff" d=" M 0.00 0.00 L 800.00 0.00 L 800.00 124.00 L 0.00 124.00 L 0.00 0.00 Z" />
<path fill="#0093dd" d=" M 208.00 3.29 C 211.42 2.17 214.91 3.65 218.11 4.81 C 224.15 7.36 227.22 13.89 228.12 20.04 C 229.54 30.34 227.58 40.77 224.67 50.65 C 218.79 69.61 209.25 87.99 194.50 101.57 C 185.10 110.14 173.03 116.86 160.00 116.66 C 151.06 116.70 142.34 112.15 137.13 104.90 C 129.06 93.90 126.54 79.36 129.12 66.08 C 132.08 50.00 140.99 35.68 151.59 23.50 C 154.54 19.89 158.85 17.85 163.03 16.03 C 169.16 13.47 175.46 11.32 181.84 9.43 C 180.17 11.84 178.37 14.16 176.28 16.22 C 168.59 23.66 162.74 32.91 159.00 42.92 C 153.51 55.87 150.54 70.23 152.87 84.25 C 154.84 93.00 162.74 100.69 171.97 100.79 C 181.47 100.43 190.38 95.67 197.02 89.04 C 208.48 77.33 215.02 61.62 218.47 45.80 C 220.00 37.71 221.27 29.29 219.63 21.11 C 218.59 16.98 216.39 12.59 212.36 10.71 C 207.05 9.07 201.77 12.53 198.47 16.45 C 193.11 23.10 190.25 32.05 191.62 40.55 C 192.91 44.62 197.77 44.96 201.34 45.32 C 201.40 49.23 199.61 53.33 195.75 54.78 C 188.89 57.52 179.02 55.21 176.52 47.53 C 173.98 39.20 176.44 30.08 180.75 22.77 C 186.94 13.20 196.63 5.45 208.00 3.29 Z" />
<path fill="#1c1714" d=" M 763.63 14.46 C 766.13 7.51 774.12 3.42 781.26 4.95 C 786.97 5.99 791.94 10.51 793.23 16.21 C 793.57 18.97 793.57 21.76 793.21 24.51 C 791.38 32.80 781.67 38.15 773.69 35.34 C 765.05 33.16 759.95 22.58 763.63 14.46 Z" />
<path fill="#ffffff" d=" M 774.40 7.54 C 782.37 4.81 791.82 11.51 791.48 20.04 C 792.01 27.35 785.30 33.95 778.07 33.68 C 771.28 33.79 764.92 27.94 764.84 21.07 C 764.32 15.04 768.52 9.04 774.40 7.54 Z" />
<path fill="#1c1714" d=" M 771.30 12.10 C 775.29 12.50 780.66 10.80 783.52 14.43 C 785.78 17.44 782.71 20.91 779.65 21.52 C 782.05 23.64 783.72 26.39 785.36 29.11 C 784.60 29.06 783.07 28.95 782.31 28.90 C 780.41 25.59 778.58 21.02 773.93 21.53 C 773.89 24.04 773.88 26.55 773.86 29.07 C 773.23 29.06 771.96 29.06 771.32 29.06 C 771.28 23.41 771.31 17.75 771.30 12.10 Z" />
<path fill="#ffffff" d=" M 773.86 14.11 C 776.75 14.17 782.54 13.44 781.56 18.05 C 779.67 20.33 776.42 19.47 773.85 19.72 C 773.84 17.85 773.85 15.98 773.86 14.11 Z" />
<path fill="#908e8c" d=" M 793.23 16.21 C 793.75 16.81 794.28 17.41 794.82 18.01 C 794.78 19.73 794.74 21.46 794.71 23.18 C 794.20 23.63 793.70 24.07 793.21 24.51 C 793.57 21.76 793.57 18.97 793.23 16.21 Z" />
<path fill="#1f1a17" d=" M 555.41 17.61 C 567.11 16.21 580.01 16.99 589.81 24.25 C 599.75 31.14 604.06 43.44 605.47 54.99 C 606.90 68.47 605.94 82.72 599.92 95.05 C 595.07 105.22 585.25 112.68 574.26 114.97 C 565.14 116.86 555.50 116.75 546.51 114.25 C 536.44 111.39 528.04 103.58 524.38 93.78 C 519.48 80.70 518.75 66.23 521.29 52.55 C 523.05 43.38 526.73 34.15 533.66 27.65 C 539.72 22.26 547.37 18.72 555.41 17.61 Z" />
<path fill="#1f1a17" d=" M 4.72 24.95 C 4.46 22.12 6.10 18.77 9.22 18.53 C 13.41 18.14 17.67 18.18 21.85 18.75 C 25.01 19.18 27.36 21.77 28.54 24.58 C 38.23 48.52 47.43 72.68 57.28 96.55 C 67.54 72.92 76.81 48.86 86.89 25.14 C 88.14 22.10 90.39 18.85 93.98 18.60 C 98.07 18.25 102.28 18.00 106.34 18.72 C 109.09 19.33 110.05 22.46 109.89 24.95 C 109.88 53.99 109.90 83.03 109.88 112.07 C 110.31 115.27 106.18 115.17 104.03 115.26 C 101.67 115.13 96.95 115.67 97.31 112.09 C 97.20 84.22 97.47 56.35 97.18 28.48 C 85.08 57.04 74.08 86.07 62.04 114.66 C 58.37 115.40 54.56 115.51 50.96 114.37 C 39.63 85.90 28.91 57.17 17.60 28.70 C 17.01 57.27 17.81 85.88 17.20 114.45 C 13.11 115.45 8.79 115.61 4.77 114.19 C 4.67 84.45 4.77 54.70 4.72 24.95 Z" />
<path fill="#1f1a17" d=" M 244.19 21.94 C 244.12 20.51 244.29 18.50 246.13 18.40 C 249.54 18.05 253.54 17.35 256.59 19.31 C 256.86 35.20 256.62 51.11 256.70 67.01 C 256.80 73.85 256.28 80.75 257.54 87.51 C 259.04 95.15 264.47 102.38 272.21 104.44 C 280.31 106.58 289.88 105.96 296.53 100.42 C 302.35 95.40 304.20 87.35 304.18 79.97 C 304.17 59.91 304.30 39.84 304.12 19.78 C 307.01 17.18 311.34 18.05 314.87 18.42 C 316.72 18.49 316.79 20.56 316.74 21.95 C 316.71 41.65 316.73 61.36 316.73 81.06 C 316.68 89.93 313.76 98.99 307.69 105.59 C 302.45 111.46 294.86 114.89 287.11 115.77 C 276.67 117.17 265.25 115.75 256.59 109.37 C 248.08 103.11 244.38 92.17 244.25 81.94 C 244.15 61.94 244.25 41.94 244.19 21.94 Z" />
<path fill="#1f1a17" d=" M 350.39 18.72 C 354.13 18.01 358.03 18.23 361.80 18.72 C 365.27 19.18 367.24 22.46 368.93 25.17 C 381.95 49.17 394.78 73.28 407.33 97.53 C 407.29 72.02 407.31 46.50 407.33 20.99 C 407.17 18.03 410.92 18.33 412.93 18.16 C 415.30 18.26 419.68 17.70 419.84 21.10 C 419.89 50.11 419.83 79.12 419.87 108.13 C 420.02 110.82 419.08 114.38 415.93 114.75 C 411.55 115.28 406.05 115.87 402.77 112.24 C 399.53 108.87 397.91 104.35 395.55 100.39 C 383.47 77.69 370.67 55.36 359.39 32.25 C 359.58 58.50 359.47 84.78 359.52 111.04 C 359.42 112.37 359.75 114.59 357.84 114.74 C 354.74 115.51 351.35 115.53 348.28 114.60 C 346.81 114.20 347.01 112.26 346.93 111.09 C 346.94 82.38 346.92 53.68 346.94 24.97 C 346.89 22.52 347.51 19.22 350.39 18.72 Z" />
<path fill="#1f1a17" d=" M 439.28 27.94 C 439.03 24.89 437.44 18.69 442.00 18.37 C 463.97 18.32 485.95 18.30 507.91 18.38 C 511.05 18.16 510.73 21.92 510.76 24.04 C 510.62 25.76 511.01 28.21 508.99 28.98 C 499.70 29.28 490.38 28.98 481.08 29.12 C 481.07 57.49 481.09 85.87 481.07 114.25 C 477.06 115.62 472.75 115.47 468.69 114.40 C 468.44 85.97 468.65 57.53 468.59 29.10 C 459.26 29.10 449.93 29.09 440.61 29.11 C 440.28 28.82 439.61 28.23 439.28 27.94 Z" />
<path fill="#1f1a17" d=" M 616.37 18.77 C 620.69 17.97 625.60 17.29 629.71 19.11 C 637.73 34.20 644.77 49.86 651.69 65.50 C 658.18 50.31 665.21 35.37 672.49 20.55 C 673.00 19.51 673.78 18.39 675.07 18.31 C 678.81 17.85 682.68 17.89 686.35 18.86 C 685.03 23.62 682.27 27.76 680.21 32.19 C 672.85 47.22 665.02 62.03 657.83 77.14 C 657.36 89.30 657.96 101.51 657.56 113.67 C 654.25 116.32 649.02 115.30 645.11 114.23 C 645.09 102.47 645.13 90.70 645.11 78.94 C 645.25 76.76 643.95 74.92 643.06 73.05 C 634.77 56.62 626.49 40.19 618.24 23.75 C 617.43 22.16 616.89 20.46 616.37 18.77 Z" />
<path fill="#1f1a17" d=" M 717.92 20.99 C 719.11 17.17 723.94 18.30 726.99 18.06 C 729.71 18.25 733.97 17.62 734.91 21.03 C 746.04 52.06 757.45 82.99 768.34 114.10 C 764.25 115.76 759.49 115.65 755.32 114.44 C 751.67 106.30 749.26 97.63 746.05 89.30 C 732.62 89.27 719.19 89.30 705.76 89.28 C 703.14 96.83 700.64 104.42 697.99 111.96 C 697.50 113.01 697.17 114.52 695.82 114.76 C 692.12 115.59 688.13 115.54 684.57 114.15 C 685.32 110.00 686.99 106.12 688.40 102.17 C 698.25 75.12 708.07 48.05 717.92 20.99 Z" />
<path fill="#ffffff" d=" M 554.47 28.74 C 563.99 26.66 575.18 27.43 582.65 34.35 C 589.90 41.11 592.22 51.45 592.59 61.01 C 593.07 71.79 592.71 83.38 586.81 92.81 C 582.74 99.84 575.03 104.46 566.98 105.13 C 558.70 105.94 549.40 104.82 543.12 98.84 C 536.40 92.54 534.26 83.04 533.46 74.21 C 532.90 63.61 533.10 52.46 537.78 42.69 C 541.07 36.01 547.20 30.62 554.47 28.74 Z" />
<path fill="#ffffff" d=" M 708.85 79.39 C 714.56 63.17 719.81 46.78 725.86 30.68 C 731.38 46.95 737.09 63.16 742.80 79.37 C 731.48 79.47 720.16 79.43 708.85 79.39 Z" />
</svg>
